<?xml version="1.0" encoding="UTF-8"?>
<svg version="1.1" xmlns="http://www.w3.org/2000/svg" width="546" height="230">
<path d="M0 0 C3.21787174 3.85378449 4.37192977 8.81264254 5.75 13.5625 C5.98332031 14.31724609 6.21664062 15.07199219 6.45703125 15.84960938 C6.67230469 16.58115234 6.88757813 17.31269531 7.109375 18.06640625 C7.30499023 18.72584229 7.50060547 19.38527832 7.70214844 20.06469727 C8 22 8 22 7 26 C4.03 26.66 1.06 27.32 -2 28 C1.74422512 39.13965112 7.39305509 47.49356604 18 53 C23.33573983 55.23044035 23.33573983 55.23044035 29 56 C29.20496094 55.36191406 29.40992188 54.72382812 29.62109375 54.06640625 C29.89050781 53.24011719 30.15992188 52.41382813 30.4375 51.5625 C30.70433594 50.73878906 30.97117188 49.91507813 31.24609375 49.06640625 C32 47 32 47 33 46 C39.51472576 46.04973073 53.25722194 46.25722194 58 51 C58.50369216 58.93315154 57.48024365 66.27963453 53 73 C52.97250522 75.06910593 52.97250522 75.06910593 53.375 77.1875 C53.58125 78.445625 53.7875 79.70375 54 81 C55.65 81.66 57.3 82.32 59 83 C59.0825 82.2575 59.165 81.515 59.25 80.75 C60.1841885 77.32464216 61.06517421 76.0080387 64 74 C70.32142857 74.32142857 70.32142857 74.32142857 72 76 C71.9375 79.375 71.9375 79.375 71 83 C67.36139956 85.50659142 65.44671416 86 61 86 C61.33 86.99 61.66 87.98 62 89 C63.98 89.33 65.96 89.66 68 90 C68.45375 89.030625 68.9075 88.06125 69.375 87.0625 C71 84 71 84 73 83 C75.3329866 82.95977609 77.66706666 82.95679753 80 83 C80.66 84.65 81.32 86.3 82 88 C80.4375 90.4375 80.4375 90.4375 78 93 C74.25 93.8125 74.25 93.8125 71 94 C71 95.32 71 96.64 71 98 C72.65 98.33 74.3 98.66 76 99 C76 99.66 76 100.32 76 101 C69.125 100.125 69.125 100.125 68 99 C67.95936168 97.33382885 67.957279 95.66611905 68 94 C66.906875 93.9175 65.81375 93.835 64.6875 93.75 C61 93 61 93 59.0625 91.1875 C58 89 58 89 58 85 C57.236875 84.9175 56.47375 84.835 55.6875 84.75 C53 84 53 84 51.25 82.25 C49.89615784 79.81308412 49.38181347 77.74905699 49 75 C47.72125 75.061875 46.4425 75.12375 45.125 75.1875 C28.56308204 75.14051584 11.45310995 71.36405471 -1 60 C-2.04800781 59.071875 -2.04800781 59.071875 -3.1171875 58.125 C-15.00772787 46.99724901 -20.2926124 30.76991354 -23 15 C-23.09616919 9.22984836 -23.09616919 9.22984836 -20.71875 6.5625 C-15.3355963 2.29660462 -6.91771436 -1.12271102 0 0 Z M-10.5 4.8125 C-11.4384375 5.14894531 -12.376875 5.48539062 -13.34375 5.83203125 C-15.97574235 6.98933377 -17.94367395 7.98721968 -20 10 C-22.03239034 21.21240065 -13.78085641 38.76376805 -8 48 C3.12384346 62.86744462 17.06646183 68.71282085 34.8828125 71.45703125 C42.46026173 72.64761412 42.46026173 72.64761412 50 72 C54.78889321 66.89475621 55.2532612 60.56723447 55.06274414 53.87597656 C55.03168579 52.94736816 55.03168579 52.94736816 55 52 C52.25071558 51.49576443 49.50068857 50.99646574 46.75 50.5 C45.97269531 50.35691406 45.19539063 50.21382812 44.39453125 50.06640625 C43.26337891 49.86337891 43.26337891 49.86337891 42.109375 49.65625 C41.41811523 49.53056641 40.72685547 49.40488281 40.01464844 49.27539062 C37.67837306 48.90971022 37.67837306 48.90971022 34 49 C33.01 51.97 32.02 54.94 31 58 C21.78350549 58.67029051 15.01541619 55.36682037 7.84765625 49.6953125 C1.98451641 44.3156028 -3.67181419 36.59460141 -4.25 28.5 C-4.1675 27.675 -4.085 26.85 -4 26 C-1.03 25.01 1.94 24.02 5 23 C3.22089072 16.24947898 1.29561809 9.59379663 -1 3 C-4.84403674 3 -6.95631755 3.51282526 -10.5 4.8125 Z M65 77 C62.54294304 79.59987203 62.54294304 79.59987203 62 83 C65.93075644 82.42547254 65.93075644 82.42547254 69 80 C69 79.01 69 78.02 69 77 C67.68 77 66.36 77 65 77 Z M76 85 C74.35 86.65 72.7 88.3 71 90 C72.79199472 90.78282648 72.79199472 90.78282648 75 91 C77.28747373 89.78469266 77.28747373 89.78469266 79 88 C79 87.34 79 86.68 79 86 C78.01 85.67 77.02 85.34 76 85 Z " fill="#000000" transform="translate(33,66)"/>
<path d="M0 0 C0.61488281 0.0721875 1.22976563 0.144375 1.86328125 0.21875 C3.07564453 0.35796875 3.07564453 0.35796875 4.3125 0.5 C5.51326172 0.63921875 5.51326172 0.63921875 6.73828125 0.78125 C9.11896555 1.04813463 9.11896555 1.04813463 12 1 C12.66 1.66 13.32 2.32 14 3 C13.22398437 3.00257812 12.44796875 3.00515625 11.6484375 3.0078125 C0.1381293 3.41987604 -9.98077297 6.4725121 -18 15 C-18.99 15.495 -18.99 15.495 -20 16 C-20.3125 13.25 -20.3125 13.25 -20 10 C-15.53717655 4.94213343 -8.2455099 3.08183663 -2 1 C-1.34 1.33 -0.68 1.66 0 2 C0 1.34 0 0.68 0 0 Z " fill="#000000" transform="translate(442,79)"/>
<path d="M0 0 C3.83032799 0.29464061 6.35234913 0.53045312 9.5 2.8125 C11 5 11 5 10.75 7.25 C10.5025 7.8275 10.255 8.405 10 9 C9.76539063 8.37609375 9.53078125 7.7521875 9.2890625 7.109375 C7.63176925 4.39744059 6.3858401 4.11024003 3.375 3.25 C2.55773437 3.00765625 1.74046875 2.7653125 0.8984375 2.515625 C0.27195313 2.34546875 -0.35453125 2.1753125 -1 2 C-0.67 1.34 -0.34 0.68 0 0 Z " fill="#000000" transform="translate(227,80)"/>
<path d="M0 0 C4.60388896 -0.32120156 7.38920743 0.00820044 11 3 C11.8125 5.6875 11.8125 5.6875 12 8 C11.2575 7.071875 11.2575 7.071875 10.5 6.125 C7.11778563 3.25011778 4.32742915 2.86548583 0 2 C0 1.34 0 0.68 0 0 Z " fill="#000000" transform="translate(274,80)"/>
<path d="M0 0 C0.99 1.98 1.98 3.96 3 6 C2.01 6.33 1.02 6.66 0 7 C0 6.01 0 5.02 0 4 C-14.25948581 5.7214154 -29.45155552 10.68984397 -40.1875 20.6875 C-41.97710777 22.97079267 -42.42461851 24.23933122 -43 27 C-42.3709375 27.43570313 -41.741875 27.87140625 -41.09375 28.3203125 C-38.38816725 30.20281134 -35.69372393 32.10057928 -33 34 C-32.23945313 34.52464844 -31.47890625 35.04929688 -30.6953125 35.58984375 C-25.8461814 39.03913134 -21.79056589 42.1821452 -20.51953125 48.3203125 C-20.12021321 53.24774646 -20.76210876 56.41954618 -23.875 60.3125 C-28.41379161 64.8605168 -34.17522128 68.64316933 -40.6796875 69.25 C-43 69 -43 69 -45 67 C-45.4375 63.6875 -45.4375 63.6875 -45 60 C-42.20820971 56.49032078 -39.08146917 53.883755 -35 52 C-32.6875 52.3125 -32.6875 52.3125 -31 53 C-31.66 53 -32.32 53 -33 53 C-33.185625 53.556875 -33.37125 54.11375 -33.5625 54.6875 C-35.39368936 57.63332636 -37.62746106 58.94158291 -40.5390625 60.75390625 C-41.26222656 61.37072266 -41.26222656 61.37072266 -42 62 C-42 62.99 -42 63.98 -42 65 C-33.63282558 63.26886046 -27.87390759 60.16751117 -23 53 C-22.16666667 50 -22.16666667 50 -23 47 C-26.46599431 42.2083922 -30.08389074 39.32124626 -35.125 36.3125 C-44.06067961 30.87864078 -44.06067961 30.87864078 -45.875 27.25 C-46.08406833 23.48677 -45.15727363 20.99196805 -43 18 C-34.68237294 9.9391779 -24.71811753 5.8559591 -14 2 C-12.93265625 1.60941406 -11.8653125 1.21882813 -10.765625 0.81640625 C-7.00032128 -0.2951029 -3.90592702 -0.13468714 0 0 Z " fill="#000000" transform="translate(355,80)"/>
<path d="M0 0 C0 0.66 0 1.32 0 2 C-0.82242188 2.23074219 -1.64484375 2.46148437 -2.4921875 2.69921875 C-15.27129876 5.9517481 -15.27129876 5.9517481 -25 14 C-24.525625 14.37125 -24.05125 14.7425 -23.5625 15.125 C-20.31658978 19.02009226 -20.96629778 24.1671022 -21 29 C-20.49339844 27.66195312 -20.49339844 27.66195312 -19.9765625 26.296875 C-19.53054687 25.12640625 -19.08453125 23.9559375 -18.625 22.75 C-18.18414062 21.58984375 -17.74328125 20.4296875 -17.2890625 19.234375 C-16.29409145 16.73790219 -15.25589954 14.37095053 -14 12 C-12.68 12.33 -11.36 12.66 -10 13 C-12.01780246 19.61390807 -14.6329783 25.73818329 -17.59765625 31.984375 C-18.82725802 34.62853257 -19.94778632 37.28136177 -21 40 C-17.53058454 39.54177532 -14.32604951 39.10868317 -11 38 C-8 37 -8 37 -5 36.5 C2.86916914 34.28993548 10.50717888 26.67115864 15 20 C16.13794852 17.45163641 17.15789321 14.8945171 18.10546875 12.26953125 C19 10 19 10 21 7 C21.66 7 22.32 7 23 7 C25.33326921 6.05454891 27.63581978 5.07952149 29.9375 4.0625 C35.91911128 1.43984033 40.37434343 -0.12501239 47 0 C47.495 0.99 47.495 0.99 48 2 C46.76636719 2.34611328 46.76636719 2.34611328 45.5078125 2.69921875 C32.72870124 5.9517481 32.72870124 5.9517481 23 14 C23.474375 14.350625 23.94875 14.70125 24.4375 15.0625 C27.75929032 19.18152 27.03568145 24.94037063 27 30 C27.24234375 29.20335938 27.4846875 28.40671875 27.734375 27.5859375 C29.5656397 21.79632372 31.25846232 16.81054844 35 12 C35.99 12.33 36.98 12.66 38 13 C36.00667932 19.39296661 33.58525386 25.47046394 30.8125 31.5625 C30.26045898 32.78936523 30.26045898 32.78936523 29.69726562 34.04101562 C28.80204987 36.02909218 27.9015835 38.01480308 27 40 C28.05316406 39.84660156 29.10632813 39.69320312 30.19140625 39.53515625 C33.10607115 39.12560846 36.01184238 38.75257082 38.9375 38.4375 C39.70964844 38.35371094 40.48179687 38.26992187 41.27734375 38.18359375 C41.84582031 38.12300781 42.41429687 38.06242187 43 38 C39.15471255 41.25370477 35.23059641 42.58500532 30.3125 43.5 C27.74074357 43.90826428 27.74074357 43.90826428 25 46 C23.93475003 48.68958796 23.93475003 48.68958796 23.17578125 51.8828125 C22.71655273 53.63271484 22.71655273 53.63271484 22.24804688 55.41796875 C21.93931641 56.64128906 21.63058594 57.86460937 21.3125 59.125 C20.99216797 60.35605469 20.67183594 61.58710938 20.34179688 62.85546875 C19.55086715 65.90113845 18.77077067 68.94917771 18 72 C16.68 71.67 15.36 71.34 14 71 C14.6563126 64.94364701 16.26028493 59.37056667 18.0625 53.5625 C18.34416016 52.64017578 18.62582031 51.71785156 18.91601562 50.76757812 C19.60607599 48.51026202 20.30083123 46.25450816 21 44 C19.865625 43.855625 18.73125 43.71125 17.5625 43.5625 C14 43 14 43 13 42 C12.95907063 39.66702567 12.95758277 37.33294775 13 35 C13.20625 35.639375 13.4125 36.27875 13.625 36.9375 C14.88634445 39.35423882 14.88634445 39.35423882 18.0859375 39.62890625 C19.52839844 39.81259766 19.52839844 39.81259766 21 40 C21.5361079 37.81619325 22.05320098 35.62771417 22.5625 33.4375 C22.85253906 32.21933594 23.14257812 31.00117187 23.44140625 29.74609375 C24.03085164 25.79309987 23.93556563 22.87860122 23 19 C21.58408173 17.07716915 21.58408173 17.07716915 20 16 C19.38125 17.06927734 19.38125 17.06927734 18.75 18.16015625 C10.88259063 31.2081142 1.27652203 37.34318654 -13 42 C-13.64582031 42.14050781 -14.29164063 42.28101563 -14.95703125 42.42578125 C-18.07851164 43.30313807 -20.28511057 44.15982762 -23 46 C-24.41303091 48.78011571 -25.06871363 51.65602073 -25.75 54.6875 C-25.94464844 55.46544922 -26.13929688 56.24339844 -26.33984375 57.04492188 C-26.91489522 59.35863568 -27.45769171 61.67842751 -28 64 C-28.65877459 66.66869806 -29.32973094 69.33415715 -30 72 C-31.32 71.67 -32.64 71.34 -34 71 C-33.31465992 65.194303 -31.96776988 59.69920838 -30.4375 54.0625 C-30.20353516 53.18787109 -29.96957031 52.31324219 -29.72851562 51.41210938 C-29.15594751 49.27374275 -28.57970405 47.13644097 -28 45 C-28.969375 44.690625 -29.93875 44.38125 -30.9375 44.0625 C-34 43 -34 43 -35 42 C-35.04092937 39.66702567 -35.04241723 37.33294775 -35 35 C-34.690625 35.9590625 -34.690625 35.9590625 -34.375 36.9375 C-33.10461791 39.34925077 -33.10461791 39.34925077 -29.875 39.75 C-28.92625 39.8325 -27.9775 39.915 -27 40 C-26.34 37.36 -25.68 34.72 -25 32 C-27.97 32 -30.94 32 -34 32 C-30.5647952 29.70986347 -29.014669 29.82157027 -25 30 C-24.19644046 22.78795021 -24.19644046 22.78795021 -27.0625 16.625 C-27.701875 16.08875 -28.34125 15.5525 -29 15 C-29.0625 12.5 -29.0625 12.5 -28 10 C-24.24456348 6.48978788 -20.18551347 4.60992889 -15.4375 2.8125 C-14.4484668 2.42288086 -14.4484668 2.42288086 -13.43945312 2.02539062 C-4.50722709 -1.44875156 -4.50722709 -1.44875156 0 0 Z " fill="#000000" transform="translate(218,82)"/>
<path d="M0 0 C3.53909424 1.62607033 4.90124871 2.82883109 6.875 6.25 C8.10315965 10.34386551 7.92735196 12.86906853 7 17 C6.67 17 6.34 17 6 17 C5.98582031 16.40832031 5.97164063 15.81664063 5.95703125 15.20703125 C5.68432144 10.68889307 5.54683565 8.61352293 2.4375 5.125 C1.633125 4.42375 0.82875 3.7225 0 3 C0 2.01 0 1.02 0 0 Z " fill="#000000" transform="translate(460,82)"/>
<path d="M0 0 C1.32 0.33 2.64 0.66 4 1 C4.6283815 10.73991324 2.29192372 19.60720547 0 29 C1.65 29 3.3 29 5 29 C3.6875 30.5 3.6875 30.5 2 32 C1.01 32 0.02 32 -1 32 C-1.82695746 39.95946554 -2.13154671 47.8771771 -2.1875 55.875 C-2.20039063 56.76598389 -2.21328125 57.65696777 -2.2265625 58.57495117 C-2.23437382 63.78363699 -1.69940185 68.06971953 0 73 C-3.75096739 71.5133361 -3.75096739 71.5133361 -4.828125 69.29296875 C-7.20978937 57.40669936 -5.83486596 45.84471506 -4 34 C-10.08397829 33.83537436 -10.08397829 33.83537436 -16 35 C-17.34845658 36.79073382 -17.34845658 36.79073382 -18.09765625 39.12109375 C-18.42443359 39.97509766 -18.75121094 40.82910156 -19.08789062 41.70898438 C-19.40951172 42.60939453 -19.73113281 43.50980469 -20.0625 44.4375 C-20.72005208 46.18619792 -21.37760417 47.93489583 -22.03515625 49.68359375 C-22.35371582 50.55226074 -22.67227539 51.42092773 -23.00048828 52.31591797 C-24.58685728 56.57594259 -26.29163917 60.78770427 -28 65 C-28.99 64.67 -29.98 64.34 -31 64 C-29.0123983 54.00520286 -25.25606456 45.18843528 -21 36 C-22.61455078 36.48533203 -22.61455078 36.48533203 -24.26171875 36.98046875 C-28.08121611 38.02214985 -31.06461076 38.38582247 -35 38 C-35.66 37.01 -36.32 36.02 -37 35 C-35.72382813 34.80664062 -34.44765625 34.61328125 -33.1328125 34.4140625 C-31.46347424 34.15146996 -29.79420699 33.88842569 -28.125 33.625 C-27.28324219 33.49867187 -26.44148437 33.37234375 -25.57421875 33.2421875 C-24.76855469 33.11328125 -23.96289062 32.984375 -23.1328125 32.8515625 C-22.01737061 32.67874756 -22.01737061 32.67874756 -20.87939453 32.50244141 C-18.77385645 32.10751677 -18.77385645 32.10751677 -17 30 C-14.9765625 29.83984375 -14.9765625 29.83984375 -12.625 29.9375 C-9.52289135 30.05681187 -6.98544878 29.87927601 -4 29 C-3.40267181 26.23735711 -3 23.83967231 -3 21 C-2.34 21 -1.68 21 -1 21 C-1.185625 20.34 -1.37125 19.68 -1.5625 19 C-2.13027308 15.10669886 -1.59281707 11.88624521 -1 8 C-1.5775 8.969375 -2.155 9.93875 -2.75 10.9375 C-5 14 -5 14 -7.25 14.875 C-7.8275 14.91625 -8.405 14.9575 -9 15 C-7.61219205 11.10993227 -5.7847773 8.03441292 -3.375 4.6875 C-2.74335938 3.80449219 -2.11171875 2.92148438 -1.4609375 2.01171875 C-0.97882813 1.34785156 -0.49671875 0.68398437 0 0 Z M-19 35 C-18 37 -18 37 -18 37 Z M-22 41 C-21 43 -21 43 -21 43 Z " fill="#000000" transform="translate(179,83)"/>
<path d="M0 0 C-0.226875 0.886875 -0.45375 1.77375 -0.6875 2.6875 C-1.0616818 6.65382707 -0.19790068 7.78768362 2 11 C6.3846439 24.21278597 1.49405996 39.54391389 -4.375 51.5 C-7.69926334 57.79260983 -11.09481374 64.20313192 -18 67 C-21.02740277 66.81464881 -23.18206118 66.52581782 -25.75 64.875 C-28.88008109 60.17987837 -29.07220969 55.78324299 -28.875 50.3125 C-28.66219701 46.13999174 -28.66219701 46.13999174 -30.875 42.75 C-31.926875 41.88375 -31.926875 41.88375 -33 41 C-35.52730874 36.05068705 -35.00142118 33.00503335 -33.5 27.6875 C-30.59017689 19.18261434 -26.0120539 9.93176549 -19 4 C-18.01 4 -17.02 4 -16 4 C-15.67 3.34 -15.34 2.68 -15 2 C-16.65 2.33 -18.3 2.66 -20 3 C-19.67 2.34 -19.34 1.68 -19 1 C-12.8159722 -0.30060902 -6.28792678 -0.10141817 0 0 Z M-21.47265625 11.578125 C-21.97667969 12.37734375 -22.48070312 13.1765625 -23 14 C-23.55558594 14.84046875 -24.11117188 15.6809375 -24.68359375 16.546875 C-29.51214842 24.18919175 -32.07075306 30.85135992 -31 40 C-30.34 40.99 -29.68 41.98 -29 43 C-28.34 43 -27.68 43 -27 43 C-26.68546875 42.19175781 -26.3709375 41.38351563 -26.046875 40.55078125 C-25.61890625 39.48214844 -25.1909375 38.41351563 -24.75 37.3125 C-24.33234375 36.25675781 -23.9146875 35.20101562 -23.484375 34.11328125 C-21.66310212 30.29340102 -19.87529603 26.67719023 -15.75 25.1875 C-15.1725 25.125625 -14.595 25.06375 -14 25 C-14 25.99 -14 26.98 -14 28 C-14.88751953 28.309375 -14.88751953 28.309375 -15.79296875 28.625 C-18.86560236 30.53927793 -19.74672471 32.76743166 -21.3125 36 C-21.84488281 37.0725 -22.37726563 38.145 -22.92578125 39.25 C-23.45751953 40.61125 -23.45751953 40.61125 -24 42 C-23.67 42.66 -23.34 43.32 -23 44 C-20.03 43.34 -17.06 42.68 -14 42 C-17.6678852 43.96189209 -20.87248551 45.39301257 -25 46 C-26.46220465 51.84881861 -26.87497981 56.95838044 -24.5 62.5 C-24.005 63.325 -23.51 64.15 -23 65 C-17.4417352 64.36311549 -15.42179404 61.80432654 -11.9296875 57.6796875 C-8.31882772 52.66541663 -6.18214879 47.0974131 -3.9921875 41.359375 C-3 39 -3 39 -1 36 C-0.38664091 32.6878609 0 29.55668441 0 26.1875 C0 24 0 24 1 22 C0.82798384 20.03328195 0.56451069 18.0740132 0.25 16.125 C0.09015625 15.07570313 -0.0696875 14.02640625 -0.234375 12.9453125 C-1.04431629 9.82951795 -1.64972831 8.19564855 -4 6 C-11.5137696 4.11057256 -16.93063738 5.31480314 -21.47265625 11.578125 Z " fill="#000000" transform="translate(412,83)"/>
<path d="M0 0 C-2.71770638 2.71770638 -4.32032932 2.29449985 -8.125 2.4375 C-17.49165903 2.97769867 -26.70483772 4.4514148 -35.7265625 7.08984375 C-39.28203614 8.07841816 -42.32762229 8.14989297 -46 8 C-46.33 7.01 -46.66 6.02 -47 5 C-7.38528769 -4.92352513 -7.38528769 -4.92352513 0 0 Z " fill="#000000" transform="translate(519,87)"/>
<path d="M0 0 C0.928125 0.20625 1.85625 0.4125 2.8125 0.625 C1.8225 0.955 0.8325 1.285 -0.1875 1.625 C-1.32828728 4.61916717 -2.27399328 7.5592359 -3.1875 10.625 C-3.9159922 12.87518607 -4.64945564 15.12376615 -5.38671875 17.37109375 C-6.21713718 19.93458108 -7.04677509 22.49830468 -7.875 25.0625 C-8.19957184 26.06689621 -8.19957184 26.06689621 -8.53070068 27.09158325 C-12.87995451 40.5632381 -17.07215446 54.07996322 -21.1875 67.625 C-22.1775 67.295 -23.1675 66.965 -24.1875 66.625 C-23.65285159 62.27465032 -22.84883707 58.21499412 -21.67602539 53.98022461 C-19.69903489 46.65125716 -18.78467719 39.65680403 -18.75 32.0625 C-18.74025146 31.24241455 -18.73050293 30.4223291 -18.72045898 29.57739258 C-18.80918614 23.2272483 -20.33692987 18.32614025 -23.1875 12.625 C-20.1875 13.625 -20.1875 13.625 -19.0546875 15.3046875 C-16.30183461 21.39564548 -15.43643346 26.96602986 -15.1875 33.625 C-13.49195611 30.55137576 -12.63840334 27.66892293 -11.875 24.25 C-10.41403757 18.10336014 -8.33902289 12.34706821 -6.078125 6.4609375 C-4.85428059 3.71255762 -4.85428059 3.71255762 -6.1875 1.625 C-3.1875 -0.375 -3.1875 -0.375 0 0 Z M-15.1875 36.625 C-14.1875 38.625 -14.1875 38.625 -14.1875 38.625 Z M-16.1875 39.625 C-15.1875 41.625 -15.1875 41.625 -15.1875 41.625 Z " fill="#000000" transform="translate(376.1875,86.375)"/>
<path d="M0 0 C0.33 0 0.66 0 1 0 C0.51335748 10.05727882 -2.86827142 17.69925464 -10.2890625 24.6015625 C-12.39321469 26.32139465 -14.63077175 27.67601951 -17 29 C-17.33 29.66 -17.66 30.32 -18 31 C-20.32156597 31.40729228 -22.6568787 31.74438677 -25 32 C-20.48890715 27.23829088 -20.48890715 27.23829088 -18.140625 26.09375 C-10.81092453 22.34864757 -4.62729499 15.80551011 -2 8 C-1.21496627 5.33910079 -0.58215463 2.71672161 0 0 Z " fill="#000000" transform="translate(286,88)"/>
<path d="M0 0 C-6.52020521 4.34680348 -15.11324889 8 -23 8 C-23 6.68 -23 5.36 -23 4 C-16.16818702 -0.06215907 -7.80421805 -2.10924812 0 0 Z " fill="#000000" transform="translate(358,92)"/>
<path d="M0 0 C1.32 0 2.64 0 4 0 C3.3440206 5.63587931 1.43967159 10.60988342 -0.5625 15.875 C-0.89185547 16.75414063 -1.22121094 17.63328125 -1.56054688 18.5390625 C-2.36886614 20.69458053 -3.18212294 22.84809441 -4 25 C8.13535912 23.96500135 16.60768026 16.47866048 25 8 C25.33 7.34 25.66 6.68 26 6 C26.66 6 27.32 6 28 6 C28.33 5.34 28.66 4.68 29 4 C28.40300869 7.33135891 27.27987719 9.21275667 25.0625 11.75 C24.53785156 12.36359375 24.01320313 12.9771875 23.47265625 13.609375 C22 15 22 15 20 15 C19.67 15.99 19.34 16.98 19 18 C16.78515625 19.53515625 16.78515625 19.53515625 14.0625 21.0625 C10.27918235 23.19623733 10.27918235 23.19623733 7 26 C6.34 26 5.68 26 5 26 C4.67 26.66 4.34 27.32 4 28 C4.969375 28.28875 5.93875 28.5775 6.9375 28.875 C10 30 10 30 11 32 C10.21625 31.814375 9.4325 31.62875 8.625 31.4375 C6.02910225 30.74037734 6.02910225 30.74037734 4 32 C2.865625 31.835 1.73125 31.67 0.5625 31.5 C-2.95312924 30.73714606 -2.95312924 30.73714606 -6 32 C-6.98466177 34.49467663 -7.77590897 36.86726647 -8.5 39.4375 C-8.71430664 40.16018066 -8.92861328 40.88286133 -9.14941406 41.62744141 C-9.77685005 43.748705 -10.38916621 45.87390766 -11 48 C-11.5808208 49.95907999 -12.16363407 51.91757255 -12.75 53.875 C-12.97171875 54.63554687 -13.1934375 55.39609375 -13.421875 56.1796875 C-14 58 -14 58 -15 60 C-15.99 59.67 -16.98 59.34 -18 59 C-17.25835551 53.3484812 -15.60678144 48.05500598 -13.9375 42.625 C-13.65583984 41.69816406 -13.37417969 40.77132812 -13.08398438 39.81640625 C-12.39265778 37.54323066 -11.69791205 35.27116062 -11 33 C-11.99 32.67 -12.98 32.34 -14 32 C-15.75 30.1875 -15.75 30.1875 -17 28 C-16.6875 25.75 -16.6875 25.75 -16 24 C-14.35 23.67 -12.7 23.34 -11 23 C-10.67 22.01 -10.34 21.02 -10 20 C-9.34 20.99 -8.68 21.98 -8 23 C-5.36 15.41 -2.72 7.82 0 0 Z M-14 28 C-10 29 -10 29 -10 29 Z " fill="#000000" transform="translate(437,95)"/>
<path d="M0 0 C0.99 0.33 1.98 0.66 3 1 C2.52432875 8.25398658 0.70533406 14.26812223 -2 21 C-1.34 20.67 -0.68 20.34 0 20 C2.04055005 19.92934383 4.08334257 19.91578024 6.125 19.9375 C7.22070312 19.94652344 8.31640625 19.95554687 9.4453125 19.96484375 C10.28835938 19.97644531 11.13140625 19.98804687 12 20 C9.65025865 23.52461202 8.12608655 23.77325461 4.109375 24.66015625 C1.38288252 25.09942448 -1.24570252 25.13771487 -4 25 C-4.268125 26.051875 -4.53625 27.10375 -4.8125 28.1875 C-6 32 -6 32 -7.5 34.3125 C-9.72471052 38.29843967 -10.26230702 42.53044844 -11 47 C-0.41676694 44.83244982 -0.41676694 44.83244982 10 42 C9.08012081 45.20628412 8.5881954 46.6595685 5.64453125 48.36328125 C-4.58032141 51.7903698 -4.58032141 51.7903698 -10 51 C-12.6617901 48.91908016 -13.49737305 47.25955412 -13.9375 43.9375 C-14.37543421 39.0644866 -12.93261266 35.59260678 -10.8125 31.26171875 C-9.8684246 28.63373962 -10.14279631 27.59839868 -11 25 C-11 24.01 -11 23.02 -11 22 C-10.37963867 21.93176025 -9.75927734 21.86352051 -9.12011719 21.79321289 C-6.81684092 21.19701554 -6.81684092 21.19701554 -5.90332031 18.95874023 C-5.63100586 18.08419189 -5.35869141 17.20964355 -5.078125 16.30859375 C-4.77519531 15.36435547 -4.47226562 14.42011719 -4.16015625 13.44726562 C-3.85980469 12.45404297 -3.55945313 11.46082031 -3.25 10.4375 C-2.93417969 9.44041016 -2.61835938 8.44332031 -2.29296875 7.41601562 C-1.51368149 4.94827264 -0.75019312 2.47671261 0 0 Z " fill="#000000" transform="translate(482,95)"/>
<path d="M0 0 C0.66 1.32 1.32 2.64 2 4 C-0.97 6.475 -0.97 6.475 -4 9 C-2.94124926 5.59687262 -1.99097846 2.98646769 0 0 Z " fill="#000000" transform="translate(168,100)"/>
<path d="M0 0 C4.31320068 1.75722991 7.9031084 4.8062168 10 9 C9.67 9.66 9.34 10.32 9 11 C9.66 11 10.32 11 11 11 C10.67 12.32 10.34 13.64 10 15 C9.61328125 14.33613281 9.2265625 13.67226562 8.828125 12.98828125 C6.13078959 8.41482889 3.49047722 4.02747372 0 0 Z " fill="#000000" transform="translate(448,130)"/>
</svg>
