<?xml version="1.0" encoding="UTF-8"?>
<svg version="1.1" xmlns="http://www.w3.org/2000/svg" width="260" height="110">
<path d="M0 0 C5.16540126 2.30029798 9.86843198 0.45947159 15.10546875 -0.9609375 C18.37389765 -1.62477611 20.23532627 -1.66226344 23.375 -0.625 C25.375 1.375 25.375 1.375 25.8125 5.0625 C25.66189248 9.02849801 24.74336842 11.59801077 22.26953125 14.69921875 C17.32832407 19.06989479 10.97852817 22.375 4.375 22.375 C4.189375 23.921875 4.189375 23.921875 4 25.5 C3.43610186 28.99616846 2.58817941 32.05897627 1.375 35.375 C0.385 35.375 -0.605 35.375 -1.625 35.375 C-1.295 31.085 -0.965 26.795 -0.625 22.375 C-1.285 22.045 -1.945 21.715 -2.625 21.375 C-3.25 19.3125 -3.25 19.3125 -3.625 17.375 C-4.12128906 17.65214844 -4.61757812 17.92929687 -5.12890625 18.21484375 C-9.71818168 20.66187676 -13.44059721 21.94296643 -18.625 22.375 C-18.74617188 23.05046875 -18.86734375 23.7259375 -18.9921875 24.421875 C-19.15976563 25.31390625 -19.32734375 26.2059375 -19.5 27.125 C-19.66242188 28.00671875 -19.82484375 28.8884375 -19.9921875 29.796875 C-20.59296264 32.24447744 -21.40497117 34.18099857 -22.625 36.375 C-23.615 35.385 -24.605 34.395 -25.625 33.375 C-25.274375 32.3025 -24.92375 31.23 -24.5625 30.125 C-23.55784239 26.12064889 -23.55784239 26.12064889 -24.625 22.375 C-24.955 22.375 -25.285 22.375 -25.625 22.375 C-25.625 26.665 -25.625 30.955 -25.625 35.375 C-27.11 35.87 -27.11 35.87 -28.625 36.375 C-31.06564587 30.73100642 -30.81789099 25.39748522 -30.625 19.375 C-31.945 19.375 -33.265 19.375 -34.625 19.375 C-34.7796875 20.365 -34.7796875 20.365 -34.9375 21.375 C-35.81713564 25.21341009 -37.19469896 28.70596691 -38.625 32.375 C-39.615 32.375 -40.605 32.375 -41.625 32.375 C-41.07187265 28.34507218 -40.4691938 24.35477076 -39.625 20.375 C-41.275 20.045 -42.925 19.715 -44.625 19.375 C-44.625 18.715 -44.625 18.055 -44.625 17.375 C-43.99851562 17.30023438 -43.37203125 17.22546875 -42.7265625 17.1484375 C-40.23203476 16.74710969 -37.98654321 16.27858493 -35.625 15.375 C-34.29824944 12.73645467 -34.29824944 12.73645467 -33.625 9.375 C-31.7687451 6.27449794 -29.71000033 3.32547216 -27.625 0.375 C-25.59889612 0.88152597 -23.59839529 1.38355888 -21.609375 2.0234375 C-18.65539219 2.54678091 -16.47336075 1.2393443 -13.765625 0.15625 C-8.64939114 -1.71098863 -5.04999372 -2.26379029 0 0 Z M-12.625 3.375 C-12.625 4.365 -12.625 5.355 -12.625 6.375 C-13.08819381 8.28016024 -13.59223193 10.17561309 -14.125 12.0625 C-14.4034375 13.05636719 -14.681875 14.05023438 -14.96875 15.07421875 C-15.1853125 15.83347656 -15.401875 16.59273437 -15.625 17.375 C-10.18955446 16.94016436 -6.86332445 15.84272 -2.625 12.375 C-0.31509774 9.46899393 0.47545944 8.27913499 0.0625 4.5625 C-0.2778125 3.4796875 -0.2778125 3.4796875 -0.625 2.375 C-5.14218381 1.00615642 -8.21274263 1.90424754 -12.625 3.375 Z M14.6875 2.3125 C13.87925781 2.50714844 13.07101563 2.70179687 12.23828125 2.90234375 C11.62339844 3.05832031 11.00851563 3.21429688 10.375 3.375 C10.375 4.365 10.375 5.355 10.375 6.375 C9.91180619 8.28016024 9.40776807 10.17561309 8.875 12.0625 C8.5965625 13.05636719 8.318125 14.05023438 8.03125 15.07421875 C7.8146875 15.83347656 7.598125 16.59273437 7.375 17.375 C13.91998185 16.73333511 17.51898102 15.62175982 21.75 10.5 C23.64775427 7.53310588 23.64775427 7.53310588 23.125 4.5 C22.8775 3.79875 22.63 3.0975 22.375 2.375 C19.07803895 1.27601298 17.97005097 1.50375556 14.6875 2.3125 Z M-17.625 6.375 C-17.295 7.695 -16.965 9.015 -16.625 10.375 C-16.295 9.385 -15.965 8.395 -15.625 7.375 C-16.285 7.045 -16.945 6.715 -17.625 6.375 Z M-23.625 8.375 C-23.955 10.025 -24.285 11.675 -24.625 13.375 C-23.305 13.375 -21.985 13.375 -20.625 13.375 C-20.625 12.055 -20.625 10.735 -20.625 9.375 C-21.615 9.045 -22.605 8.715 -23.625 8.375 Z M1.375 10.375 C-0.99515245 13.02984449 -0.99515245 13.02984449 -1.625 16.375 C-0.965 16.375 -0.305 16.375 0.375 16.375 C0.705 17.365 1.035 18.355 1.375 19.375 C1.705 16.405 2.035 13.435 2.375 10.375 C2.045 10.375 1.715 10.375 1.375 10.375 Z M-30.625 12.375 C-29.625 14.375 -29.625 14.375 -29.625 14.375 Z M-22.625 17.375 C-22.295 18.035 -21.965 18.695 -21.625 19.375 C-21.295 18.715 -20.965 18.055 -20.625 17.375 C-21.285 17.375 -21.945 17.375 -22.625 17.375 Z " fill="#DEE3E5" transform="translate(111.625,38.625)"/>
<path d="M0 0 C0 0.99 0 1.98 0 3 C0.59167969 2.86722656 1.18335938 2.73445313 1.79296875 2.59765625 C2.58316406 2.42105469 3.37335938 2.24445312 4.1875 2.0625 C4.96480469 1.88847656 5.74210937 1.71445312 6.54296875 1.53515625 C7.35378906 1.35855469 8.16460937 1.18195312 9 1 C9.7940625 0.814375 10.588125 0.62875 11.40625 0.4375 C14.41668107 -0.07028355 17.26119729 -0.0960308 20.3125 -0.0625 C21.91544922 -0.04896484 21.91544922 -0.04896484 23.55078125 -0.03515625 C24.35902344 -0.02355469 25.16726562 -0.01195312 26 0 C29.51758653 10.55275959 27.82603878 18.03059387 23 28 C21.42621915 30.4115165 20.43753038 31.35466699 18 33 C15.3125 33.4375 15.3125 33.4375 13 33 C11 31 11 31 10.8046875 28.8359375 C10.82789063 28.02382812 10.85109375 27.21171875 10.875 26.375 C10.89304688 25.55773437 10.91109375 24.74046875 10.9296875 23.8984375 C10.95289063 23.27195312 10.97609375 22.64546875 11 22 C10.34 22 9.68 22 9 22 C7.26529202 18.53058404 8.24911549 14.70949784 9 11 C10.5625 8.0625 10.5625 8.0625 12 6 C12 5.34 12 4.68 12 4 C10.68 4 9.36 4 8 4 C7.74089844 5.258125 7.48179687 6.51625 7.21484375 7.8125 C5.98805793 13.31954911 4.32647204 18.64441609 2.5625 24 C2.26279297 24.95261719 1.96308594 25.90523437 1.65429688 26.88671875 C1.35716797 27.79035156 1.06003906 28.69398437 0.75390625 29.625 C0.48908447 30.44226563 0.2242627 31.25953125 -0.04858398 32.1015625 C-1 34 -1 34 -4 35 C-3.855625 33.96875 -3.71125 32.9375 -3.5625 31.875 C-3.06365739 27.84088151 -2.70065679 23.80167802 -2.375 19.75 C-2.23191406 17.97882812 -2.23191406 17.97882812 -2.0859375 16.171875 C-2.01262228 13.46587681 -2.15710929 11.54125259 -3 9 C-5.64 9.33 -8.28 9.66 -11 10 C-11.33 8.35 -11.66 6.7 -12 5 C-13.11375 5.66 -14.2275 6.32 -15.375 7 C-18.75 9 -18.75 9 -21 9 C-19.28608958 12.3326036 -17.9034051 14.07341212 -14.875 16.375 C-12 19 -12 19 -10.875 22.5 C-11.02765225 26.77426308 -11.92799907 28.09405318 -15 31 C-17.60881687 32.85141842 -18.54502262 33.06204237 -21.75 32.625 C-22.4925 32.41875 -23.235 32.2125 -24 32 C-24.8125 30.3125 -24.8125 30.3125 -25 28 C-22.8125 25.25 -22.8125 25.25 -20 23 C-18.68 23 -17.36 23 -16 23 C-15.67 23.99 -15.34 24.98 -15 26 C-14.62923026 23.62389965 -14.62923026 23.62389965 -15 21 C-16.93228389 19.30689695 -16.93228389 19.30689695 -19.4375 18.0625 C-23.82950631 15.34098737 -23.82950631 15.34098737 -25.5 12 C-24.83837222 8.03023335 -23.30878016 6.77884818 -20.17578125 4.38671875 C-13.78996475 0.31676389 -7.21275493 -3.40602316 0 0 Z M-5 2 C-4.67 2.66 -4.34 3.32 -4 4 C-3.67 3.34 -3.34 2.68 -3 2 C-3.66 2 -4.32 2 -5 2 Z M21 4 C17.58776098 4.76775378 16.26804306 5.65154402 14.125 8.4375 C12.64063469 11.04009296 12.64063469 11.04009296 14 14 C15.65 13.67 17.3 13.34 19 13 C17.68 14.98 16.36 16.96 15 19 C18 20.33333333 18 20.33333333 21 19 C19 22 19 22 16.375 22.6875 C15.59125 22.790625 14.8075 22.89375 14 23 C14 25.31 14 27.62 14 30 C14.99 30 15.98 30 17 30 C23.2178552 23.7821448 24.32762586 16.79410549 24.3984375 8.3203125 C24.26695312 7.55460937 24.13546875 6.78890625 24 6 C23.01 5.34 22.02 4.68 21 4 Z M-3 7 C-1.02 9.97 -1.02 9.97 1 13 C3.15377564 10.37801226 4.40072174 8.35595828 5 5 C2.11604263 5 -0.29477815 6.05905327 -3 7 Z M12 15 C13 17 13 17 13 17 Z " fill="#DFE5E7" transform="translate(171,39)"/>
<path d="M0 0 C2.0625 1.6875 2.0625 1.6875 3.0625 4.6875 C3.8875 4.378125 4.7125 4.06875 5.5625 3.75 C12.69503955 1.58476478 19.67353422 1.55122809 27.0625 1.6875 C27.0625 2.6775 27.0625 3.6675 27.0625 4.6875 C22.4425 5.3475 17.8225 6.0075 13.0625 6.6875 C12.7325 8.6675 12.4025 10.6475 12.0625 12.6875 C11.7325 13.3475 11.4025 14.0075 11.0625 14.6875 C12.7125 14.6875 14.3625 14.6875 16.0625 14.6875 C16.5575 16.1725 16.5575 16.1725 17.0625 17.6875 C16.7325 18.3475 16.4025 19.0075 16.0625 19.6875 C13.74093403 20.09479228 11.4056213 20.43188677 9.0625 20.6875 C8.0725 23.3275 7.0825 25.9675 6.0625 28.6875 C9.0325 28.0275 12.0025 27.3675 15.0625 26.6875 C14.7325 28.0075 14.4025 29.3275 14.0625 30.6875 C10.17901516 31.98199495 7.15552664 31.81953312 3.0625 31.6875 C2.5675 31.1925 2.5675 31.1925 2.0625 30.6875 C2.10044942 28.35215099 2.21760753 26.0178482 2.375 23.6875 C2.45363281 22.40875 2.53226563 21.13 2.61328125 19.8125 C2.76152344 18.78125 2.90976563 17.75 3.0625 16.6875 C3.7225 16.3575 4.3825 16.0275 5.0625 15.6875 C5.78943904 13.70861039 6.46066251 11.70795442 7.0625 9.6875 C4.61769921 9.87578772 4.61769921 9.87578772 2.0625 10.6875 C1.35855388 12.00153276 0.69904342 13.3395257 0.0625 14.6875 C-1.84517394 16.49747635 -3.86249474 18.06358284 -5.9375 19.6875 C-5.49277344 20.23019531 -5.04804688 20.77289063 -4.58984375 21.33203125 C-4.02394531 22.04746094 -3.45804688 22.76289062 -2.875 23.5 C-2.30652344 24.20769531 -1.73804688 24.91539063 -1.15234375 25.64453125 C-0.75144531 26.31871094 -0.35054687 26.99289063 0.0625 27.6875 C-0.2675 28.6775 -0.5975 29.6675 -0.9375 30.6875 C-3.9375 29.6875 -3.9375 29.6875 -6.3125 27.1875 C-8.96046475 24.21989263 -8.96046475 24.21989263 -13.9375 23.6875 C-15.2575 27.6475 -16.5775 31.6075 -17.9375 35.6875 C-18.9275 35.6875 -19.9175 35.6875 -20.9375 35.6875 C-20.85371094 34.72328125 -20.76992187 33.7590625 -20.68359375 32.765625 C-20.58175781 31.50234375 -20.47992188 30.2390625 -20.375 28.9375 C-20.27058594 27.68453125 -20.16617188 26.4315625 -20.05859375 25.140625 C-19.95873277 22.29297636 -20.03165705 20.34463933 -20.9375 17.6875 C-20.2775 17.3575 -19.6175 17.0275 -18.9375 16.6875 C-18.47098793 14.56173218 -18.47098793 14.56173218 -18.3125 12.125 C-18.23773438 11.29871094 -18.16296875 10.47242188 -18.0859375 9.62109375 C-18.03695312 8.98300781 -17.98796875 8.34492187 -17.9375 7.6875 C-18.5975 7.6875 -19.2575 7.6875 -19.9375 7.6875 C-19.9375 5.4375 -19.9375 5.4375 -18.9375 2.6875 C-13.27676201 -1.73098128 -6.62340002 -2.9593915 0 0 Z M-14.9375 4.6875 C-14.9375 6.6675 -14.9375 8.6475 -14.9375 10.6875 C-14.009375 9.6975 -14.009375 9.6975 -13.0625 8.6875 C-10.9375 6.6875 -10.9375 6.6875 -8.9375 6.6875 C-9.9275 9.9875 -10.9175 13.2875 -11.9375 16.6875 C-10.9475 17.0175 -9.9575 17.3475 -8.9375 17.6875 C-4.29666176 15.13910988 -0.45884977 12.37421984 1.125 7.25 C1.104375 6.404375 1.08375 5.55875 1.0625 4.6875 C-1.26713789 2.53706503 -2.63130359 1.72743866 -5.8125 1.3125 C-9.38896898 1.74167628 -11.82780715 2.91053266 -14.9375 4.6875 Z " fill="#E3EBEF" transform="translate(219.9375,38.3125)"/>
<path d="M0 0 C2.01018861 3.86083844 3.12945267 7.73136379 2.6875 12.0625 C2.3471875 13.0215625 2.3471875 13.0215625 2 14 C1.01 14.33 0.02 14.66 -1 15 C1.42245667 19.75519272 2.96470544 22.73411745 8 25 C10.19130534 25.69579454 10.19130534 25.69579454 12 26 C12.66 24.68 13.32 23.36 14 22 C15.79206547 22.14084796 17.58364917 22.28783701 19.375 22.4375 C20.87160156 22.55931641 20.87160156 22.55931641 22.3984375 22.68359375 C25 23 25 23 27 24 C27.125 31.625 27.125 31.625 26 35 C26.99 34.67 27.98 34.34 29 34 C31.6875 35.3125 31.6875 35.3125 34 37 C34 37.66 34 38.32 34 39 C35.32 39.33 36.64 39.66 38 40 C37.41196203 43.02419525 36.77321882 46.01758453 36 49 C34.35 49 32.7 49 31 49 C30.67 48.01 30.34 47.02 30 46 C27.99983534 44.79117904 27.99983534 44.79117904 26 44 C26 43.34 26 42.68 26 42 C24.68 41.34 23.36 40.68 22 40 C22 39.01 22 38.02 22 37 C20.2984375 37.061875 20.2984375 37.061875 18.5625 37.125 C11.09541289 37.09856783 4.91371653 35.75668503 -1 31 C-1.5878125 30.52820313 -2.175625 30.05640625 -2.78125 29.5703125 C-9.14287229 23.93650293 -11.44165969 16.75142557 -13 8.5625 C-13 5 -13 5 -11.4375 2.625 C-7.53313094 0.0220873 -4.57043856 -1.52347952 0 0 Z M-10 5 C-9.30402722 14.39563255 -6.75413062 21.98905258 0.12109375 28.625 C4.50714176 31.83474823 9.56907324 32.64154388 14.8125 33.625 C15.50537109 33.7590625 16.19824219 33.893125 16.91210938 34.03125 C18.60722609 34.35858288 20.30350146 34.67990594 22 35 C23.94566951 31.52452927 24.07637127 29.87493656 23 26 C20.23735711 25.40267181 17.83967231 25 15 25 C14.67 26.32 14.34 27.64 14 29 C8.19003357 28.60610397 5.41931973 28.02937975 1 24 C0.34 24 -0.32 24 -1 24 C-1.99 20.37 -2.98 16.74 -4 13 C-3.01 12.67 -2.02 12.34 -1 12 C-1.33 9.03 -1.66 6.06 -2 3 C-5.20395416 3 -7.09399739 3.74335022 -10 5 Z M25 37 C26 39 26 39 26 39 Z " fill="#E5EBED" transform="translate(17,31)"/>
<path d="M0 0 C2.01018861 3.86083844 3.12945267 7.73136379 2.6875 12.0625 C2.3471875 13.0215625 2.3471875 13.0215625 2 14 C1.01 14.33 0.02 14.66 -1 15 C1.42245667 19.75519272 2.96470544 22.73411745 8 25 C10.19130534 25.69579454 10.19130534 25.69579454 12 26 C12.33 25.01 12.66 24.02 13 23 C14.32 23.66 15.64 24.32 17 25 C16.34 25 15.68 25 15 25 C14.67 26.65 14.34 28.3 14 30 C7.78737733 29.67301986 3.34670663 28.67600259 -1 24 C-2.75428746 21.12659813 -4.16732228 18.26948459 -5 15 C-4.67 14.01 -4.34 13.02 -4 12 C-3.01 12 -2.02 12 -1 12 C-1.33 9.03 -1.66 6.06 -2 3 C-4.64 3.66 -7.28 4.32 -10 5 C-9.77183594 5.75925781 -9.54367187 6.51851562 -9.30859375 7.30078125 C-9.02113281 8.29464844 -8.73367187 9.28851563 -8.4375 10.3125 C-8.14746094 11.29863281 -7.85742188 12.28476562 -7.55859375 13.30078125 C-7 16 -7 16 -8 19 C-8.66 19 -9.32 19 -10 19 C-14.07360146 7.35456306 -14.07360146 7.35456306 -12 3 C-8.02658632 0.41649585 -4.62597437 -1.54199146 0 0 Z " fill="#E1E7EA" transform="translate(17,31)"/>
<path d="M0 0 C0 0.99 0 1.98 0 3 C-1.65 3.66 -3.3 4.32 -5 5 C-5 6.32 -5 7.64 -5 9 C-4.01 8.01 -3.02 7.02 -2 6 C-1.34 6.33 -0.68 6.66 0 7 C-0.144375 7.68707031 -0.28875 8.37414063 -0.4375 9.08203125 C-0.623125 9.98308594 -0.80875 10.88414063 -1 11.8125 C-1.185625 12.70582031 -1.37125 13.59914063 -1.5625 14.51953125 C-2.08684843 17.07260693 -2.08684843 17.07260693 -2 20 C-2 20.99 -2 21.98 -2 23 C-2.99 23.33 -3.98 23.66 -5 24 C-6.25325285 26.78526449 -6.25325285 26.78526449 -7.1875 30.0625 C-7.53167969 31.16722656 -7.87585938 32.27195313 -8.23046875 33.41015625 C-8.48441406 34.26480469 -8.73835937 35.11945313 -9 36 C-9.99 36 -10.98 36 -12 36 C-11.91621094 35.03578125 -11.83242187 34.0715625 -11.74609375 33.078125 C-11.64425781 31.81484375 -11.54242188 30.5515625 -11.4375 29.25 C-11.33308594 27.99703125 -11.22867188 26.7440625 -11.12109375 25.453125 C-11.02123277 22.60547636 -11.09415705 20.65713933 -12 18 C-11.34 17.67 -10.68 17.34 -10 17 C-9.53348793 14.87423218 -9.53348793 14.87423218 -9.375 12.4375 C-9.30023438 11.61121094 -9.22546875 10.78492188 -9.1484375 9.93359375 C-9.09945312 9.29550781 -9.05046875 8.65742187 -9 8 C-9.66 8 -10.32 8 -11 8 C-11 5.75 -11 5.75 -10 3 C-3.37579618 -1.68789809 -3.37579618 -1.68789809 0 0 Z " fill="#EEF3F4" transform="translate(211,38)"/>
<path d="M0 0 C7.81024416 0.03403156 7.81024416 0.03403156 10.640625 2.33203125 C11.84525594 3.8233063 12.92914152 5.4099374 14 7 C14.66 7.66 15.32 8.32 16 9 C15.01 9 14.02 9 13 9 C13 9.99 13 10.98 13 12 C12.34 12 11.68 12 11 12 C10.79375 12.556875 10.5875 13.11375 10.375 13.6875 C8.44999226 16.92501302 5.96149098 18.68231141 3 21 C3.44472656 21.54269531 3.88945312 22.08539063 4.34765625 22.64453125 C4.91355469 23.35996094 5.47945312 24.07539062 6.0625 24.8125 C6.63097656 25.52019531 7.19945312 26.22789063 7.78515625 26.95703125 C8.18605469 27.63121094 8.58695313 28.30539063 9 29 C8.67 29.99 8.34 30.98 8 32 C4.25362727 30.75120909 2.70986061 28.84204893 0 26 C-0.763125 25.236875 -1.52625 24.47375 -2.3125 23.6875 C-2.869375 23.130625 -3.42625 22.57375 -4 22 C-1.48147899 19.27160224 1.13749409 17.20579398 4.1875 15.125 C7.23446657 12.90902431 7.88666007 12.38252227 9 8.625 C9 7.75875 9 6.8925 9 6 C5.55549263 3.70366176 3.06187717 3.45983515 -1 3 C-0.67 2.01 -0.34 1.02 0 0 Z " fill="#D4DCDF" transform="translate(211,37)"/>
<path d="M0 0 C2 2 2 2 2.4375 5.6875 C2.27741864 10.59666171 0.52234257 13.64072885 -3 17 C-7.76181525 20.4663214 -11.9554267 22.77494529 -18 22 C-17.3359375 20.1171875 -17.3359375 20.1171875 -16 18 C-13.5390625 16.9453125 -13.5390625 16.9453125 -10.625 16.125 C-5.77181301 14.54723411 -5.77181301 14.54723411 -2.3125 11 C-0.73278744 7.93498623 -0.73278744 7.93498623 -1 4 C-4.57380342 2.80873219 -6.50883302 3.2650555 -10.1875 3.9375 C-11.27417969 4.13214844 -12.36085938 4.32679687 -13.48046875 4.52734375 C-14.31191406 4.68332031 -15.14335938 4.83929688 -16 5 C-15.234375 3.08203125 -15.234375 3.08203125 -14 1 C-8.9670239 -0.76154163 -5.2391253 -1.49689294 0 0 Z " fill="#D7E0E2" transform="translate(135,38)"/>
<path d="M0 0 C-0.34485543 2.8842454 -0.78255407 3.8207818 -3.06640625 5.703125 C-3.89011719 6.21359375 -4.71382812 6.7240625 -5.5625 7.25 C-6.38878906 7.77078125 -7.21507812 8.2915625 -8.06640625 8.828125 C-8.70449219 9.21484375 -9.34257812 9.6015625 -10 10 C-10.66 9.67 -11.32 9.34 -12 9 C-12 7.68 -12 6.36 -12 5 C-13.98 5.33 -15.96 5.66 -18 6 C-18 5.01 -18 4.02 -18 3 C-16.58521865 2.35004703 -15.16808513 1.70521278 -13.75 1.0625 C-12.96109375 0.70285156 -12.1721875 0.34320313 -11.359375 -0.02734375 C-6.70298708 -1.94694738 -4.6530594 -2.19727805 0 0 Z M-5 2 C-4.67 2.66 -4.34 3.32 -4 4 C-3.67 3.34 -3.34 2.68 -3 2 C-3.66 2 -4.32 2 -5 2 Z " fill="#E7EAED" transform="translate(171,39)"/>
<path d="M0 0 C0 0.99 0 1.98 0 3 C-4.62 3.66 -9.24 4.32 -14 5 C-14.33 6.98 -14.66 8.96 -15 11 C-15.99 11.33 -16.98 11.66 -18 12 C-18.33 12.66 -18.66 13.32 -19 14 C-18.125 7.25 -18.125 7.25 -17 5 C-18.65 5 -20.3 5 -22 5 C-22.33 4.34 -22.66 3.68 -23 3 C-15.69209942 -0.42557839 -7.89657407 -0.14563354 0 0 Z " fill="#ECF0F2" transform="translate(247,40)"/>
<path d="M0 0 C0 0.99 0 1.98 0 3 C-0.66 3 -1.32 3 -2 3 C-2.1546875 3.99 -2.1546875 3.99 -2.3125 5 C-3.19213564 8.83841009 -4.56969896 12.33096691 -6 16 C-6.99 16 -7.98 16 -9 16 C-8.44687265 11.97007218 -7.8441938 7.97977076 -7 4 C-8.65 3.67 -10.3 3.34 -12 3 C-12 2.34 -12 1.68 -12 1 C-7.58774263 -0.47075246 -4.51718381 -1.36884358 0 0 Z " fill="#E9EDEF" transform="translate(79,55)"/>
<path d="M0 0 C0 0.99 0 1.98 0 3 C-1.65 3.66 -3.3 4.32 -5 5 C-4.98839844 5.75925781 -4.97679687 6.51851562 -4.96484375 7.30078125 C-4.95582031 8.29464844 -4.94679687 9.28851563 -4.9375 10.3125 C-4.92589844 11.29863281 -4.91429687 12.28476562 -4.90234375 13.30078125 C-5 16 -5 16 -6 19 C-6.99 19 -7.98 19 -9 19 C-9 15.37 -9 11.74 -9 8 C-9.66 8 -10.32 8 -11 8 C-11 5.75 -11 5.75 -10 3 C-3.37579618 -1.68789809 -3.37579618 -1.68789809 0 0 Z " fill="#E9F0F2" transform="translate(211,38)"/>
<path d="M0 0 C0.99 0.33 1.98 0.66 3 1 C2.34 1 1.68 1 1 1 C1.20625 1.515625 1.4125 2.03125 1.625 2.5625 C2.15887026 6.03265671 1.07676761 8.70635791 0 12 C-0.66 12 -1.32 12 -2 12 C-2.33 12.66 -2.66 13.32 -3 14 C-2.34 14.33 -1.68 14.66 -1 15 C-1 15.66 -1 16.32 -1 17 C-2.32 17.33 -3.64 17.66 -5 18 C-5 17.34 -5 16.68 -5 16 C-5.99 16 -6.98 16 -8 16 C-7.43555175 11.65136348 -5.84572036 8.82172345 -3.4375 5.1875 C-2.79683594 4.21167969 -2.15617187 3.23585937 -1.49609375 2.23046875 C-0.75552734 1.12638672 -0.75552734 1.12638672 0 0 Z " fill="#BFC4C5" transform="translate(84,39)"/>
<path d="M0 0 C2.85955998 4.28933996 1.62396828 7.07254994 0.71484375 11.96875 C-0.14268704 15.60505542 -1.33296871 18.66593742 -3 22 C-3.99 21.01 -4.98 20.02 -6 19 C-5.649375 17.9275 -5.29875 16.855 -4.9375 15.75 C-4.06914463 12.27657851 -3.86098464 11.189243 -5 8 C-5 7.01 -5 6.02 -5 5 C-3.68 5 -2.36 5 -1 5 C-0.67 3.35 -0.34 1.7 0 0 Z " fill="#EEF1F4" transform="translate(92,53)"/>
<path d="M0 0 C0.33 0 0.66 0 1 0 C1 1.65 1 3.3 1 5 C1.99 5.33 2.98 5.66 4 6 C2.68 6 1.36 6 0 6 C-0.12375 7.03125 -0.2475 8.0625 -0.375 9.125 C-0.93889814 12.62116846 -1.78682059 15.68397627 -3 19 C-3.99 19 -4.98 19 -6 19 C-5.67 14.71 -5.34 10.42 -5 6 C-5.66 5.67 -6.32 5.34 -7 5 C-6.67 4.01 -6.34 3.02 -6 2 C-3.525 2.99 -3.525 2.99 -1 4 C-0.67 2.68 -0.34 1.36 0 0 Z " fill="#E7EDEF" transform="translate(116,55)"/>
<path d="M0 0 C1.5 1 1.5 1 3 3 C3.83888962 9.83095837 1.83018144 14.83424758 -1 21 C-3 19 -3 19 -3.05932617 17.13647461 C-2.97142822 16.39921143 -2.88353027 15.66194824 -2.79296875 14.90234375 C-2.6547168 13.70061523 -2.6547168 13.70061523 -2.51367188 12.47460938 C-2.40603516 11.63736328 -2.29839844 10.80011719 -2.1875 9.9375 C-2.09146484 9.09638672 -1.99542969 8.25527344 -1.89648438 7.38867188 C-1.14709249 1.14709249 -1.14709249 1.14709249 0 0 Z " fill="#D9DEE3" transform="translate(196,43)"/>
<path d="M0 0 C-0.99 0.33 -1.98 0.66 -3 1 C-2.01 1.99 -1.02 2.98 0 4 C-0.8125 6.9375 -0.8125 6.9375 -2 10 C-2.99 10.33 -3.98 10.66 -5 11 C-5.33 9.35 -5.66 7.7 -6 6 C-6.639375 5.87625 -7.27875 5.7525 -7.9375 5.625 C-8.618125 5.41875 -9.29875 5.2125 -10 5 C-10.33 4.34 -10.66 3.68 -11 3 C-10.34 2.34 -9.68 1.68 -9 1 C-8.67 0.34 -8.34 -0.32 -8 -1 C-4.17612582 -2.20753921 -3.47451365 -2.31634243 0 0 Z " fill="#E9EDEF" transform="translate(123,41)"/>
<path d="M0 0 C3.96 0 7.92 0 12 0 C11.67 1.65 11.34 3.3 11 5 C10.01 5 9.02 5 8 5 C3.56503021 6.23400364 3.56503021 6.23400364 0 9 C-0.66 8.01 -1.32 7.02 -2 6 C-0.6875 4.5 -0.6875 4.5 1 3 C1.99 3 2.98 3 4 3 C4 2.34 4 1.68 4 1 C2.68 0.67 1.36 0.34 0 0 Z " fill="#E6EEF0" transform="translate(185,39)"/>
<path d="M0 0 C0 0.99 0 1.98 0 3 C-4.81174688 7.41841607 -10.69692937 9.02244044 -17 10 C-16.67 8.35 -16.34 6.7 -16 5 C-15.18015625 4.89042969 -14.3603125 4.78085937 -13.515625 4.66796875 C-12.43796875 4.50941406 -11.3603125 4.35085937 -10.25 4.1875 C-9.18265625 4.03667969 -8.1153125 3.88585938 -7.015625 3.73046875 C-3.94548906 2.98679593 -2.33919522 2.07234528 0 0 Z " fill="#CCD2D4" transform="translate(110,51)"/>
<path d="M0 0 C3.34249629 0.59687434 5.46436342 1.73603877 8 4 C8 9 8 9 6 12 C6 10.68 6 9.36 6 8 C4.02 8.33 2.04 8.66 0 9 C0.020625 8.21625 0.04125 7.4325 0.0625 6.625 C0.18684063 4.01885039 0.18684063 4.01885039 -1 2 C-0.67 1.34 -0.34 0.68 0 0 Z " fill="#E9ECEE" transform="translate(85,40)"/>
<path d="M0 0 C0.66 0.66 1.32 1.32 2 2 C1.875 4.9375 1.875 4.9375 1 8 C-1.0625 9.875 -1.0625 9.875 -3 11 C-3.33 10.67 -3.66 10.34 -4 10 C-4.99 10.33 -5.98 10.66 -7 11 C-7.33 8.36 -7.66 5.72 -8 3 C-7.67 3.66 -7.34 4.32 -7 5 C-5.02 4.67 -3.04 4.34 -1 4 C-0.67 2.68 -0.34 1.36 0 0 Z " fill="#C9CBCC" transform="translate(93,48)"/>
<path d="M0 0 C1.3125 2.125 1.3125 2.125 2 4 C1.01 4.33 0.02 4.66 -1 5 C-1.37769531 4.49855469 -1.75539063 3.99710938 -2.14453125 3.48046875 C-3.95631232 1.73018818 -3.95631232 1.73018818 -6.69921875 1.92578125 C-7.68535156 2.05339844 -8.67148438 2.18101563 -9.6875 2.3125 C-10.68136719 2.43238281 -11.67523438 2.55226563 -12.69921875 2.67578125 C-13.45847656 2.78277344 -14.21773438 2.88976563 -15 3 C-15 2.01 -15 1.02 -15 0 C-4.02840542 -2.76952873 -4.02840542 -2.76952873 0 0 Z " fill="#CDD5DB" transform="translate(113,39)"/>
<path d="M0 0 C1.32 0.33 2.64 0.66 4 1 C5.11477625 7.67522647 5.26584133 11.99085195 2 18 C1.34 17.67 0.68 17.34 0 17 C0.08378906 16.02417969 0.16757813 15.04835938 0.25390625 14.04296875 C0.35574219 12.77066406 0.45757812 11.49835938 0.5625 10.1875 C0.66691406 8.92292969 0.77132812 7.65835938 0.87890625 6.35546875 C1.19597178 3.00418816 1.19597178 3.00418816 0 0 Z " fill="#E3E8EB" transform="translate(199,57)"/>
<path d="M0 0 C3.84953469 0.64158912 7.52784753 1.64932735 11.25 2.8125 C11.25 3.1425 11.25 3.4725 11.25 3.8125 C4.66276707 4.85809253 -0.34233959 4.64542414 -6.75 2.8125 C-4.29724003 -0.11718552 -4.13675058 -0.20683753 0 0 Z " fill="#F0F2F4" transform="translate(28.75,63.1875)"/>
<path d="M0 0 C0.33 0.66 0.66 1.32 1 2 C1.598125 2.268125 2.19625 2.53625 2.8125 2.8125 C5.71687134 4.38915873 7.19388365 6.25737888 9 9 C8.67 9.99 8.34 10.98 8 12 C4.21181348 10.73727116 2.59629943 9.00624144 0 6 C-0.875 3.25 -0.875 3.25 -1 1 C-0.67 0.67 -0.34 0.34 0 0 Z " fill="#C7D0D4" transform="translate(211,57)"/>
<path d="M0 0 C2.85793316 2.85793316 2.40799941 5.14665584 2.625 9.125 C2.69976562 10.40632813 2.77453125 11.68765625 2.8515625 13.0078125 C2.92503906 14.48894531 2.92503906 14.48894531 3 16 C2.01 16.33 1.02 16.66 0 17 C-0.66 14.03 -1.32 11.06 -2 8 C-1.34 8 -0.68 8 0 8 C0 5.36 0 2.72 0 0 Z " fill="#E5EBEE" transform="translate(83,58)"/>
<path d="M0 0 C1.32 0.33 2.64 0.66 4 1 C3.41196203 4.02419525 2.77321882 7.01758453 2 10 C0.35 10 -1.3 10 -3 10 C-3.33 9.34 -3.66 8.68 -4 8 C-3.0625 5.375 -3.0625 5.375 -2 3 C-1.67 3.66 -1.34 4.32 -1 5 C-0.01 5 0.98 5 2 5 C2 4.01 2 3.02 2 2 C1.34 2 0.68 2 0 2 C0 1.34 0 0.68 0 0 Z " fill="#EFF3F3" transform="translate(51,70)"/>
<path d="M0 0 C0.33 0.66 0.66 1.32 1 2 C1.66 2 2.32 2 3 2 C2.00222417 5.59199301 1.08216231 6.93391293 -1.875 9.3125 C-5 11 -5 11 -9 11 C-9 10.34 -9 9.68 -9 9 C-8.0409375 8.5978125 -8.0409375 8.5978125 -7.0625 8.1875 C-4.66868314 7.11332248 -4.66868314 7.11332248 -4 4 C-3.01 4 -2.02 4 -1 4 C-0.67 2.68 -0.34 1.36 0 0 Z " fill="#E9F0F2" transform="translate(157,61)"/>
<path d="M0 0 C2.31 0.33 4.62 0.66 7 1 C7.33 1.99 7.66 2.98 8 4 C7.67 4.66 7.34 5.32 7 6 C4.36 6 1.72 6 -1 6 C-0.67 4.02 -0.34 2.04 0 0 Z " fill="#DADFE0" transform="translate(229,52)"/>
<path d="M0 0 C1.79206547 0.14084796 3.58364917 0.28783701 5.375 0.4375 C6.87160156 0.55931641 6.87160156 0.55931641 8.3984375 0.68359375 C11 1 11 1 13 2 C12.67 3.98 12.34 5.96 12 8 C11.67 7.01 11.34 6.02 11 5 C9.39125 4.814375 9.39125 4.814375 7.75 4.625 C4.62136385 4.10356064 2.66519576 3.59911746 0 2 C0 1.34 0 0.68 0 0 Z " fill="#F3F8F9" transform="translate(31,53)"/>
<path d="M0 0 C-0.33 2.64 -0.66 5.28 -1 8 C-0.34 8.33 0.32 8.66 1 9 C0.67 11.64 0.34 14.28 0 17 C-0.33 17 -0.66 17 -1 17 C-1 14.69 -1 12.38 -1 10 C-1.66 10 -2.32 10 -3 10 C-4.39431504 7.21136993 -4.25660094 5.07921132 -4 2 C-1 0 -1 0 0 0 Z " fill="#D5DADE" transform="translate(183,51)"/>
<path d="M0 0 C0 0.66 0 1.32 0 2 C-4.22949995 4.41685712 -7.12335991 5.34833144 -12 5 C-11.25 3.0625 -11.25 3.0625 -10 1 C-6.79497337 -0.37358284 -3.44040362 -0.07819099 0 0 Z " fill="#CAD2D4" transform="translate(129,55)"/>
<path d="M0 0 C-0.99 3.63 -1.98 7.26 -3 11 C-3.66 11 -4.32 11 -5 11 C-4.67 11.99 -4.34 12.98 -4 14 C-4.99 14.495 -4.99 14.495 -6 15 C-6.33 13.35 -6.66 11.7 -7 10 C-6.34 9.67 -5.68 9.34 -5 9 C-4.27306096 7.02111039 -3.60183749 5.02045442 -3 3 C-3.99 3 -4.98 3 -6 3 C-6 2.34 -6 1.68 -6 1 C-3 0 -3 0 0 0 Z " fill="#E1E7E8" transform="translate(230,45)"/>
<path d="M0 0 C0.33 1.32 0.66 2.64 1 4 C1.66 4 2.32 4 3 4 C2.53199289 8.05606165 2.12046792 11.46588679 0 15 C-0.66 15 -1.32 15 -2 15 C-1.38487182 9.99109914 -0.7282448 4.99367864 0 0 Z " fill="#E7EEF1" transform="translate(169,59)"/>
<path d="M0 0 C0.66 0.99 1.32 1.98 2 3 C1.3203125 5.91796875 1.3203125 5.91796875 0.125 9.1875 C-0.26429688 10.27417969 -0.65359375 11.36085938 -1.0546875 12.48046875 C-1.52261719 13.72763672 -1.52261719 13.72763672 -2 15 C-2.99 14.67 -3.98 14.34 -5 14 C-3.66666667 10.66666667 -2.33333333 7.33333333 -1 4 C-1.66 3.67 -2.32 3.34 -3 3 C-2.01 2.01 -1.02 1.02 0 0 Z " fill="#DEE5E8" transform="translate(175,49)"/>
<path d="M0 0 C0.66 0 1.32 0 2 0 C2.36368892 1.60203467 2.71561952 3.20674203 3.0625 4.8125 C3.25972656 5.70582031 3.45695313 6.59914063 3.66015625 7.51953125 C4 10 4 10 3 13 C2.01 13 1.02 13 0 13 C0 8.71 0 4.42 0 0 Z " fill="#D4DDDE" transform="translate(202,44)"/>
<path d="M0 0 C0.66 0.99 1.32 1.98 2 3 C1.5390625 5.04296875 1.5390625 5.04296875 0.625 7.1875 C0.32851562 7.90292969 0.03203125 8.61835937 -0.2734375 9.35546875 C-0.51320313 9.89816406 -0.75296875 10.44085938 -1 11 C-1.99 11 -2.98 11 -4 11 C-3.10638298 3.10638298 -3.10638298 3.10638298 0 0 Z " fill="#E9EDF0" transform="translate(74,60)"/>
<path d="M0 0 C1.65 0.33 3.3 0.66 5 1 C4.67 2.32 4.34 3.64 4 5 C3.01 5 2.02 5 1 5 C0.34 5.66 -0.32 6.32 -1 7 C-2.65261839 8.02304948 -4.31791365 9.02616054 -6 10 C-6.33 9.34 -6.66 8.68 -7 8 C-6.21625 7.236875 -5.4325 6.47375 -4.625 5.6875 C-1.92742283 3.09108195 -1.92742283 3.09108195 0 0 Z " fill="#DEE4E5" transform="translate(112,45)"/>
<path d="M0 0 C0.99 0.33 1.98 0.66 3 1 C2.34 1 1.68 1 1 1 C1.309375 1.7734375 1.309375 1.7734375 1.625 2.5625 C2.15887026 6.03265671 1.07676761 8.70635791 0 12 C-0.99 12 -1.98 12 -3 12 C-2.88541307 10.56163249 -2.75790884 9.12429034 -2.625 7.6875 C-2.55539063 6.88699219 -2.48578125 6.08648437 -2.4140625 5.26171875 C-2 3 -2 3 0 0 Z " fill="#C9CECF" transform="translate(84,39)"/>
<path d="M0 0 C0.89203125 0.01804688 1.7840625 0.03609375 2.703125 0.0546875 C3.71632812 0.08949219 3.71632812 0.08949219 4.75 0.125 C4.75 1.115 4.75 2.105 4.75 3.125 C-0.59001821 4.46000455 -4.08955235 3.637545 -9.25 2.125 C-6.03817851 0.21891902 -3.71117397 -0.09766247 0 0 Z " fill="#E4EAED" transform="translate(242.25,39.875)"/>
<path d="M0 0 C0.33 0.66 0.66 1.32 1 2 C-3.95 2.33 -8.9 2.66 -14 3 C-14.33 2.34 -14.66 1.68 -15 1 C-10.22575151 -1.70540748 -5.20051239 -1.19419173 0 0 Z " fill="#F5F8FA" transform="translate(239,42)"/>
<path d="M0 0 C0.33 0.66 0.66 1.32 1 2 C1.66 2 2.32 2 3 2 C3.26554688 2.54269531 3.53109375 3.08539063 3.8046875 3.64453125 C4.15789063 4.35996094 4.51109375 5.07539062 4.875 5.8125 C5.22304687 6.52019531 5.57109375 7.22789063 5.9296875 7.95703125 C7.0656486 10.21246418 7.0656486 10.21246418 9 13 C4.77565886 11.43542921 2.55473302 8.61920511 0 5 C-0.3125 2.125 -0.3125 2.125 0 0 Z " fill="#EAF0F5" transform="translate(8,48)"/>
<path d="M0 0 C0.33 0 0.66 0 1 0 C1 1.65 1 3.3 1 5 C1.99 5.33 2.98 5.66 4 6 C-3.625 7.25 -3.625 7.25 -7 5 C-6.67 4.01 -6.34 3.02 -6 2 C-3.525 2.99 -3.525 2.99 -1 4 C-0.67 2.68 -0.34 1.36 0 0 Z " fill="#EEF3F4" transform="translate(116,55)"/>
<path d="M0 0 C2.5625 0.25 2.5625 0.25 5 1 C5.33 1.66 5.66 2.32 6 3 C2.04 4.98 2.04 4.98 -2 7 C-2 6.01 -2 5.02 -2 4 C-0.35 3.67 1.3 3.34 3 3 C3 2.34 3 1.68 3 1 C1.35 1.33 -0.3 1.66 -2 2 C-1.34 1.34 -0.68 0.68 0 0 Z " fill="#F4F8F8" transform="translate(162,42)"/>
<path d="M0 0 C0.33 0.66 0.66 1.32 1 2 C1.66 2 2.32 2 3 2 C2.34 4.64 1.68 7.28 1 10 C0.34 10 -0.32 10 -1 10 C-1.125 2.25 -1.125 2.25 0 0 Z " fill="#C4CCCF" transform="translate(171,51)"/>
<path d="M0 0 C0.66 0.33 1.32 0.66 2 1 C1.8125 2.875 1.8125 2.875 1 5 C-1.5625 6.25 -1.5625 6.25 -4 7 C-4.66 6.34 -5.32 5.68 -6 5 C-5.38125 4.731875 -4.7625 4.46375 -4.125 4.1875 C-1.7004767 3.04443152 -1.7004767 3.04443152 0 0 Z " fill="#E0E7E9" transform="translate(132,49)"/>
<path d="M0 0 C0.33 0 0.66 0 1 0 C1.36923077 7.50769231 1.36923077 7.50769231 -0.5 10 C-0.995 10.33 -1.49 10.66 -2 11 C-3.13643966 7.59068103 -2.86747764 6.99664544 -1.5625 3.8125 C-1.13130859 2.73935547 -1.13130859 2.73935547 -0.69140625 1.64453125 C-0.46324219 1.10183594 -0.23507813 0.55914062 0 0 Z " fill="#C6CDD3" transform="translate(136,40)"/>
<path d="M0 0 C0.66 0 1.32 0 2 0 C2.33 0.99 2.66 1.98 3 3 C1.0625 5.6875 1.0625 5.6875 -1 8 C-1.66 7.67 -2.32 7.34 -3 7 C-1.125 2.25 -1.125 2.25 0 0 Z " fill="#E7EEF1" transform="translate(192,62)"/>
<path d="M0 0 C0.99 0.33 1.98 0.66 3 1 C2.67 2.98 2.34 4.96 2 7 C1.01 7.33 0.02 7.66 -1 8 C-1.625 5.6875 -1.625 5.6875 -2 3 C-1.34 2.01 -0.68 1.02 0 0 Z " fill="#F1F5F8" transform="translate(208,44)"/>
<path d="M0 0 C3.3 0 6.6 0 10 0 C10 0.66 10 1.32 10 2 C6.56484998 2.62457273 3.50935186 3 0 3 C0 2.01 0 1.02 0 0 Z " fill="#D2D9DB" transform="translate(179,40)"/>
<path d="M0 0 C0.433125 0.495 0.86625 0.99 1.3125 1.5 C2.99740483 3.33218192 2.99740483 3.33218192 6 3 C5.67 3.99 5.34 4.98 5 6 C3.35 6 1.7 6 0 6 C-1 3 -1 3 0 0 Z " fill="#DBE1E6" transform="translate(184,66)"/>
<path d="M0 0 C0.99 0.33 1.98 0.66 3 1 C1.63016497 4.16115776 1.0109362 4.9927092 -2 7 C-2.33 5.35 -2.66 3.7 -3 2 C-2.01 1.34 -1.02 0.68 0 0 Z " fill="#DDE1E5" transform="translate(94,40)"/>
<path d="M0 0 C0.33 1.32 0.66 2.64 1 4 C1.66 4 2.32 4 3 4 C3 4.99 3 5.98 3 7 C1.35 7 -0.3 7 -2 7 C-2 6.34 -2 5.68 -2 5 C-2.66 4.67 -3.32 4.34 -4 4 C-3.01 4 -2.02 4 -1 4 C-0.67 2.68 -0.34 1.36 0 0 Z " fill="#D9DEDD" transform="translate(50,68)"/>
<path d="M0 0 C2.31 0 4.62 0 7 0 C6.34 1.32 5.68 2.64 5 4 C3.35 3.67 1.7 3.34 0 3 C0 2.01 0 1.02 0 0 Z " fill="#DDE3E6" transform="translate(185,58)"/>
<path d="M0 0 C0.33 0.66 0.66 1.32 1 2 C1.99 2.33 2.98 2.66 4 3 C2.66666667 4.33333333 1.33333333 5.66666667 0 7 C-2.125 6.625 -2.125 6.625 -4 6 C-3.34 5.34 -2.68 4.68 -2 4 C-2 3.34 -2 2.68 -2 2 C-1.34 2 -0.68 2 0 2 C0 1.34 0 0.68 0 0 Z " fill="#F5F7F8" transform="translate(227,54)"/>
<path d="M0 0 C1.65 0.33 3.3 0.66 5 1 C5 1.99 5 2.98 5 4 C3.02 4.33 1.04 4.66 -1 5 C-0.67 3.35 -0.34 1.7 0 0 Z " fill="#C8CBCE" transform="translate(94,56)"/>
<path d="M0 0 C-0.66 1.98 -1.32 3.96 -2 6 C-2.99 6 -3.98 6 -5 6 C-5.33 4.35 -5.66 2.7 -6 1 C-3.92446352 0.4465236 -2.15634036 0 0 0 Z " fill="#D5D7D9" transform="translate(78,56)"/>
<path d="M0 0 C1.20272819 2.40545638 1.10071472 3.94996953 1.0625 6.625 C1.05347656 7.44226562 1.04445313 8.25953125 1.03515625 9.1015625 C1.02355469 9.72804688 1.01195313 10.35453125 1 11 C0.01 10.67 -0.98 10.34 -2 10 C-2.25 3.375 -2.25 3.375 0 0 Z " fill="#E1E7E7" transform="translate(96,46)"/>
<path d="M0 0 C0.66 0.33 1.32 0.66 2 1 C1.67 2.98 1.34 4.96 1 7 C-0.32 6.67 -1.64 6.34 -3 6 C-1.125 1.125 -1.125 1.125 0 0 Z " fill="#E1E5E8" transform="translate(183,46)"/>
<path d="M0 0 C4.67692308 1.47692308 4.67692308 1.47692308 6.3125 4.125 C6.539375 4.74375 6.76625 5.3625 7 6 C6.01 6.33 5.02 6.66 4 7 C3.34 5.35 2.68 3.7 2 2 C1.34 2 0.68 2 0 2 C0 1.34 0 0.68 0 0 Z " fill="#D4DEE0" transform="translate(108,37)"/>
<path d="M0 0 C4.455 0.99 4.455 0.99 9 2 C9 2.33 9 2.66 9 3 C4.545 3.495 4.545 3.495 0 4 C0 2.68 0 1.36 0 0 Z " fill="#F5FAFB" transform="translate(31,64)"/>
<path d="M0 0 C1.32 0.66 2.64 1.32 4 2 C3.34 2 2.68 2 2 2 C2 3.32 2 4.64 2 6 C0.35 5.67 -1.3 5.34 -3 5 C-2.34 4.67 -1.68 4.34 -1 4 C-0.34786708 1.97536745 -0.34786708 1.97536745 0 0 Z " fill="#DBDFE1" transform="translate(30,54)"/>
<path d="M0 0 C0.66 0.66 1.32 1.32 2 2 C1.625 5.125 1.625 5.125 1 8 C0.67 7.01 0.34 6.02 0 5 C-2.01508358 4.26676204 -2.01508358 4.26676204 -4 4 C-3.01 4 -2.02 4 -1 4 C-0.67 2.68 -0.34 1.36 0 0 Z " fill="#D2D6D8" transform="translate(93,48)"/>
<path d="M0 0 C2.97 0.33 5.94 0.66 9 1 C7.3125 2.625 7.3125 2.625 5 4 C2.25 3.1875 2.25 3.1875 0 2 C0 1.34 0 0.68 0 0 Z " fill="#E8ECEF" transform="translate(31,53)"/>
</svg>
